<svg width="30" height="30" viewBox="0 0 450 450" fill="none" xmlns="http://www.w3.org/2000/svg">
<mask id="path-1-inside-1" fill="white">
<path d="M226.35 169.31C229.222 169.31 231.55 166.982 231.55 164.11C231.55 161.238 229.222 158.91 226.35 158.91C223.478 158.91 221.15 161.238 221.15 164.11C221.15 166.982 223.478 169.31 226.35 169.31Z"/>
<path d="M281.28 169.31C284.152 169.31 286.48 166.982 286.48 164.11C286.48 161.238 284.152 158.91 281.28 158.91C278.408 158.91 276.08 161.238 276.08 164.11C276.08 166.982 278.408 169.31 281.28 169.31Z"/>
<path d="M269 182.27L255.83 176.8C255.384 176.64 254.914 176.559 254.44 176.56C253.966 176.559 253.496 176.64 253.05 176.8L239.88 182.27C239.462 182.396 239.091 182.641 238.81 182.976C238.53 183.31 238.354 183.719 238.303 184.153C238.252 184.586 238.328 185.025 238.523 185.415C238.718 185.805 239.023 186.13 239.4 186.35L252.81 195C253.292 195.338 253.871 195.51 254.46 195.49C255.049 195.51 255.628 195.338 256.11 195L269.5 186.33C269.871 186.107 270.168 185.781 270.358 185.392C270.547 185.003 270.62 184.567 270.567 184.138C270.514 183.708 270.338 183.304 270.06 182.972C269.782 182.641 269.414 182.397 269 182.27Z"/>
<path d="M227.37 169.198C226.273 169.419 225.135 169.282 224.123 168.806C223.111 168.33 222.279 167.541 221.75 166.556C221.221 165.571 221.023 164.441 221.185 163.335C221.347 162.228 221.862 161.203 222.651 160.412C223.441 159.62 224.465 159.103 225.571 158.938C226.677 158.773 227.807 158.968 228.793 159.495C229.78 160.022 230.571 160.852 231.049 161.863C231.528 162.874 231.668 164.012 231.45 165.108C231.251 166.118 230.757 167.047 230.031 167.777C229.305 168.506 228.379 169.005 227.37 169.208V169.198Z"/>
<path d="M269.5 186.338L256.11 194.998C255.627 195.337 255.048 195.509 254.46 195.488C253.871 195.509 253.292 195.337 252.81 194.998L239.42 186.328C239.043 186.109 238.738 185.784 238.543 185.394C238.348 185.003 238.271 184.564 238.322 184.131C238.373 183.698 238.55 183.289 238.83 182.954C239.11 182.62 239.482 182.375 239.9 182.248L253.07 176.778C253.516 176.619 253.986 176.538 254.46 176.538C254.933 176.538 255.404 176.619 255.85 176.778L269 182.268C269.419 182.392 269.792 182.636 270.075 182.969C270.357 183.302 270.536 183.711 270.589 184.144C270.642 184.578 270.567 185.018 270.374 185.409C270.18 185.801 269.876 186.127 269.5 186.348V186.338Z"/>
<path d="M282.3 169.198C281.203 169.417 280.066 169.277 279.055 168.8C278.044 168.322 277.214 167.532 276.686 166.546C276.159 165.561 275.963 164.431 276.127 163.325C276.29 162.219 276.806 161.196 277.596 160.405C278.387 159.615 279.411 159.099 280.517 158.935C281.622 158.772 282.752 158.968 283.738 159.495C284.723 160.022 285.513 160.853 285.991 161.864C286.469 162.874 286.608 164.012 286.39 165.108C286.19 166.12 285.695 167.049 284.967 167.779C284.239 168.509 283.31 169.006 282.3 169.208V169.198Z"/>
<path fill-rule="evenodd" clip-rule="evenodd" d="M225 450C349.264 450 450 349.264 450 225C450 100.736 349.264 0 225 0C100.736 0 0 100.736 0 225C0 349.264 100.736 450 225 450ZM344.72 251.91C343.632 241.243 340.298 230.927 334.94 221.64C333.496 219.169 331.844 216.827 330 214.64C329.762 214.36 329.441 214.163 329.084 214.076C328.727 213.99 328.352 214.019 328.012 214.158C327.672 214.298 327.386 214.542 327.193 214.855C327 215.168 326.912 215.533 326.94 215.9C328.12 230.911 328.099 245.992 326.88 261C326.267 267.976 325.228 274.909 323.77 281.76C323.703 282.058 323.717 282.369 323.811 282.661C323.905 282.952 324.075 283.213 324.303 283.417C324.531 283.621 324.81 283.76 325.11 283.82C325.41 283.88 325.72 283.859 326.01 283.76C329.882 282.482 333.459 280.442 336.53 277.76C343.13 271.82 345.89 263.12 344.72 251.91ZM253.403 82.6594C252.943 82.7694 252.466 82.7866 252 82.7099C243.839 81.448 235.537 81.3941 227.36 82.5499L225.6 82.8199C224.933 82.9325 224.247 82.8507 223.624 82.5843C223.002 82.3179 222.469 81.8781 222.09 81.3174C221.71 80.7567 221.5 80.0987 221.484 79.4218C221.469 78.745 221.648 78.0778 222 77.4999C224.512 73.6241 229.565 73.3556 233.854 73.1277L234 73.1199C233.589 72.9259 233.175 72.733 232.761 72.5403L232.759 72.5392C227.648 70.1592 222.583 67.8007 223.72 63.6199C225.05 58.74 232.98 60.8099 239.41 64.3199C239.007 62.2623 237.452 60.4616 235.98 58.7566C233.768 56.1943 231.743 53.848 234.09 51.1699C238.77 45.7899 259.23 58.9099 256.09 79.7099C256.023 80.1776 255.864 80.6271 255.621 81.0323C255.378 81.4375 255.057 81.7901 254.676 82.0695C254.295 82.3489 253.862 82.5494 253.403 82.6594ZM319.23 205.198C319.17 204.488 319.1 203.778 319.03 203.078C318.54 198.078 318.03 193.358 317.47 188.908C312.41 146.628 299.53 117.238 279.18 101.548C261.68 88.0485 241.82 87.4584 228.24 89.3384C204.24 92.6584 163.24 109.638 158.37 186.028C158.02 191.528 157.78 196.768 157.61 201.758C157.606 201.944 157.658 202.126 157.76 202.282C157.862 202.437 158.008 202.558 158.18 202.628C161.27 203.978 164.18 206.848 166.74 211.028C173.89 222.908 177.02 243.968 168.74 259.578C160.85 274.468 147.08 279.998 139.58 281.978H139.42C135.119 283.162 130.669 283.714 126.21 283.618H121.17C112.27 283.618 106.75 284.368 105.17 289.988C104.42 292.658 105.97 300.148 113.3 309.798C119.23 317.608 130.4 328.798 149.95 337.958C161.684 343.346 174.083 347.15 186.82 349.268C187.24 350.418 187.68 351.648 188.13 352.918C188.342 353.519 188.55 354.092 188.757 354.662C188.988 355.298 189.218 355.929 189.45 356.588C192.044 363.795 194.833 371.4 196.033 374.672L196.036 374.677L196.37 375.588C196.73 376.588 196.37 377.768 194.56 377.768H183.92C183.92 377.768 180.72 384.858 189.42 384.598C204.116 384.159 208.88 391.162 212.081 395.867C214.13 398.878 215.538 400.949 218.5 399.528C225.082 396.373 214.429 386.713 212.424 384.895C212.205 384.697 212.089 384.592 212.11 384.598C239.88 388.078 231.01 377.748 231.01 377.748C231.01 377.748 216.94 377.858 211.64 377.748C210.134 377.719 208.672 377.237 207.445 376.365C206.218 375.493 205.282 374.271 204.76 372.858L197.86 354.208L196.55 350.648C204.413 351.558 212.323 352.009 220.24 351.998C228.581 352.038 236.912 351.399 245.15 350.088L246.33 353.348C246.561 353.974 246.8 354.647 247.045 355.335C247.192 355.746 247.34 356.163 247.49 356.578C249.09 360.988 250.75 365.578 250.92 366.108C251.42 367.648 251.06 368.238 248.32 368.238H238C238 368.238 235 374.898 246.42 374.898C259.96 374.898 263.978 381.52 266.737 386.068C268.718 389.332 270.05 391.528 273.79 389.438C278.72 386.68 271.51 379.605 268.875 377.019C268.453 376.605 268.148 376.306 268.03 376.158C267.55 375.548 267.94 374.698 269.16 374.878C292.93 378.498 287.09 368.238 287.09 368.238C287.09 368.238 270.69 368.328 263.71 368.338C263.028 368.338 262.362 368.134 261.797 367.753C261.233 367.372 260.795 366.83 260.54 366.198C259.588 363.792 257.994 359.358 256.542 355.316L256.32 354.698C256.211 354.394 256.104 354.093 255.998 353.796C255.715 353 255.442 352.232 255.18 351.518C254.72 350.248 254.31 349.138 253.99 348.288C258.343 347.25 262.62 345.913 266.79 344.288C278.155 339.952 288.322 332.969 296.45 323.918C304.52 314.828 310.53 303.658 314.59 290.148C314.8 289.438 315.01 288.728 315.21 287.998C315.262 287.807 315.315 287.617 315.367 287.427C315.514 286.895 315.659 286.367 315.8 285.828C317.918 277.489 319.353 268.991 320.09 260.418C321.72 242.588 320.9 223.978 319.41 207.418C319.37 206.658 319.3 205.928 319.23 205.198ZM128.58 276.832H127.53C125.653 276.865 123.777 276.711 121.93 276.372C120.907 276.184 119.998 275.604 119.395 274.757C118.792 273.909 118.543 272.86 118.7 271.832C119.09 269.192 120.22 264.782 123.22 257.612C128.004 246.449 133.711 235.706 140.28 225.492C143.3 220.599 146.737 215.975 150.55 211.672C151.555 210.512 152.72 209.502 154.01 208.672C154.083 208.63 154.16 208.596 154.24 208.572C155.18 208.432 156.27 209.162 157.39 210.162C158.777 211.445 159.963 212.928 160.91 214.562C167.18 224.992 169.58 243.492 162.73 256.412C160.637 260.378 157.818 263.916 154.42 266.842C152.762 268.277 150.982 269.565 149.1 270.692C145.839 272.64 142.335 274.153 138.68 275.192L137.86 275.412C134.828 276.22 131.716 276.696 128.58 276.832Z"/>
</mask>
<path d="M226.35 169.31C229.222 169.31 231.55 166.982 231.55 164.11C231.55 161.238 229.222 158.91 226.35 158.91C223.478 158.91 221.15 161.238 221.15 164.11C221.15 166.982 223.478 169.31 226.35 169.31Z" fill="black"/>
<path d="M281.28 169.31C284.152 169.31 286.48 166.982 286.48 164.11C286.48 161.238 284.152 158.91 281.28 158.91C278.408 158.91 276.08 161.238 276.08 164.11C276.08 166.982 278.408 169.31 281.28 169.31Z" fill="black"/>
<path d="M269 182.27L255.83 176.8C255.384 176.64 254.914 176.559 254.44 176.56C253.966 176.559 253.496 176.64 253.05 176.8L239.88 182.27C239.462 182.396 239.091 182.641 238.81 182.976C238.53 183.31 238.354 183.719 238.303 184.153C238.252 184.586 238.328 185.025 238.523 185.415C238.718 185.805 239.023 186.13 239.4 186.35L252.81 195C253.292 195.338 253.871 195.51 254.46 195.49C255.049 195.51 255.628 195.338 256.11 195L269.5 186.33C269.871 186.107 270.168 185.781 270.358 185.392C270.547 185.003 270.62 184.567 270.567 184.138C270.514 183.708 270.338 183.304 270.06 182.972C269.782 182.641 269.414 182.397 269 182.27Z" fill="black"/>
<path d="M227.37 169.198C226.273 169.419 225.135 169.282 224.123 168.806C223.111 168.33 222.279 167.541 221.75 166.556C221.221 165.571 221.023 164.441 221.185 163.335C221.347 162.228 221.862 161.203 222.651 160.412C223.441 159.62 224.465 159.103 225.571 158.938C226.677 158.773 227.807 158.968 228.793 159.495C229.78 160.022 230.571 160.852 231.049 161.863C231.528 162.874 231.668 164.012 231.45 165.108C231.251 166.118 230.757 167.047 230.031 167.777C229.305 168.506 228.379 169.005 227.37 169.208V169.198Z" fill="black"/>
<path d="M269.5 186.338L256.11 194.998C255.627 195.337 255.048 195.509 254.46 195.488C253.871 195.509 253.292 195.337 252.81 194.998L239.42 186.328C239.043 186.109 238.738 185.784 238.543 185.394C238.348 185.003 238.271 184.564 238.322 184.131C238.373 183.698 238.55 183.289 238.83 182.954C239.11 182.62 239.482 182.375 239.9 182.248L253.07 176.778C253.516 176.619 253.986 176.538 254.46 176.538C254.933 176.538 255.404 176.619 255.85 176.778L269 182.268C269.419 182.392 269.792 182.636 270.075 182.969C270.357 183.302 270.536 183.711 270.589 184.144C270.642 184.578 270.567 185.018 270.374 185.409C270.18 185.801 269.876 186.127 269.5 186.348V186.338Z" fill="black"/>
<path d="M282.3 169.198C281.203 169.417 280.066 169.277 279.055 168.8C278.044 168.322 277.214 167.532 276.686 166.546C276.159 165.561 275.963 164.431 276.127 163.325C276.29 162.219 276.806 161.196 277.596 160.405C278.387 159.615 279.411 159.099 280.517 158.935C281.622 158.772 282.752 158.968 283.738 159.495C284.723 160.022 285.513 160.853 285.991 161.864C286.469 162.874 286.608 164.012 286.39 165.108C286.19 166.12 285.695 167.049 284.967 167.779C284.239 168.509 283.31 169.006 282.3 169.208V169.198Z" fill="black"/>
<path fill-rule="evenodd" clip-rule="evenodd" d="M225 450C349.264 450 450 349.264 450 225C450 100.736 349.264 0 225 0C100.736 0 0 100.736 0 225C0 349.264 100.736 450 225 450ZM344.72 251.91C343.632 241.243 340.298 230.927 334.94 221.64C333.496 219.169 331.844 216.827 330 214.64C329.762 214.36 329.441 214.163 329.084 214.076C328.727 213.99 328.352 214.019 328.012 214.158C327.672 214.298 327.386 214.542 327.193 214.855C327 215.168 326.912 215.533 326.94 215.9C328.12 230.911 328.099 245.992 326.88 261C326.267 267.976 325.228 274.909 323.77 281.76C323.703 282.058 323.717 282.369 323.811 282.661C323.905 282.952 324.075 283.213 324.303 283.417C324.531 283.621 324.81 283.76 325.11 283.82C325.41 283.88 325.72 283.859 326.01 283.76C329.882 282.482 333.459 280.442 336.53 277.76C343.13 271.82 345.89 263.12 344.72 251.91ZM253.403 82.6594C252.943 82.7694 252.466 82.7866 252 82.7099C243.839 81.448 235.537 81.3941 227.36 82.5499L225.6 82.8199C224.933 82.9325 224.247 82.8507 223.624 82.5843C223.002 82.3179 222.469 81.8781 222.09 81.3174C221.71 80.7567 221.5 80.0987 221.484 79.4218C221.469 78.745 221.648 78.0778 222 77.4999C224.512 73.6241 229.565 73.3556 233.854 73.1277L234 73.1199C233.589 72.9259 233.175 72.733 232.761 72.5403L232.759 72.5392C227.648 70.1592 222.583 67.8007 223.72 63.6199C225.05 58.74 232.98 60.8099 239.41 64.3199C239.007 62.2623 237.452 60.4616 235.98 58.7566C233.768 56.1943 231.743 53.848 234.09 51.1699C238.77 45.7899 259.23 58.9099 256.09 79.7099C256.023 80.1776 255.864 80.6271 255.621 81.0323C255.378 81.4375 255.057 81.7901 254.676 82.0695C254.295 82.3489 253.862 82.5494 253.403 82.6594ZM319.23 205.198C319.17 204.488 319.1 203.778 319.03 203.078C318.54 198.078 318.03 193.358 317.47 188.908C312.41 146.628 299.53 117.238 279.18 101.548C261.68 88.0485 241.82 87.4584 228.24 89.3384C204.24 92.6584 163.24 109.638 158.37 186.028C158.02 191.528 157.78 196.768 157.61 201.758C157.606 201.944 157.658 202.126 157.76 202.282C157.862 202.437 158.008 202.558 158.18 202.628C161.27 203.978 164.18 206.848 166.74 211.028C173.89 222.908 177.02 243.968 168.74 259.578C160.85 274.468 147.08 279.998 139.58 281.978H139.42C135.119 283.162 130.669 283.714 126.21 283.618H121.17C112.27 283.618 106.75 284.368 105.17 289.988C104.42 292.658 105.97 300.148 113.3 309.798C119.23 317.608 130.4 328.798 149.95 337.958C161.684 343.346 174.083 347.15 186.82 349.268C187.24 350.418 187.68 351.648 188.13 352.918C188.342 353.519 188.55 354.092 188.757 354.662C188.988 355.298 189.218 355.929 189.45 356.588C192.044 363.795 194.833 371.4 196.033 374.672L196.036 374.677L196.37 375.588C196.73 376.588 196.37 377.768 194.56 377.768H183.92C183.92 377.768 180.72 384.858 189.42 384.598C204.116 384.159 208.88 391.162 212.081 395.867C214.13 398.878 215.538 400.949 218.5 399.528C225.082 396.373 214.429 386.713 212.424 384.895C212.205 384.697 212.089 384.592 212.11 384.598C239.88 388.078 231.01 377.748 231.01 377.748C231.01 377.748 216.94 377.858 211.64 377.748C210.134 377.719 208.672 377.237 207.445 376.365C206.218 375.493 205.282 374.271 204.76 372.858L197.86 354.208L196.55 350.648C204.413 351.558 212.323 352.009 220.24 351.998C228.581 352.038 236.912 351.399 245.15 350.088L246.33 353.348C246.561 353.974 246.8 354.647 247.045 355.335C247.192 355.746 247.34 356.163 247.49 356.578C249.09 360.988 250.75 365.578 250.92 366.108C251.42 367.648 251.06 368.238 248.32 368.238H238C238 368.238 235 374.898 246.42 374.898C259.96 374.898 263.978 381.52 266.737 386.068C268.718 389.332 270.05 391.528 273.79 389.438C278.72 386.68 271.51 379.605 268.875 377.019C268.453 376.605 268.148 376.306 268.03 376.158C267.55 375.548 267.94 374.698 269.16 374.878C292.93 378.498 287.09 368.238 287.09 368.238C287.09 368.238 270.69 368.328 263.71 368.338C263.028 368.338 262.362 368.134 261.797 367.753C261.233 367.372 260.795 366.83 260.54 366.198C259.588 363.792 257.994 359.358 256.542 355.316L256.32 354.698C256.211 354.394 256.104 354.093 255.998 353.796C255.715 353 255.442 352.232 255.18 351.518C254.72 350.248 254.31 349.138 253.99 348.288C258.343 347.25 262.62 345.913 266.79 344.288C278.155 339.952 288.322 332.969 296.45 323.918C304.52 314.828 310.53 303.658 314.59 290.148C314.8 289.438 315.01 288.728 315.21 287.998C315.262 287.807 315.315 287.617 315.367 287.427C315.514 286.895 315.659 286.367 315.8 285.828C317.918 277.489 319.353 268.991 320.09 260.418C321.72 242.588 320.9 223.978 319.41 207.418C319.37 206.658 319.3 205.928 319.23 205.198ZM128.58 276.832H127.53C125.653 276.865 123.777 276.711 121.93 276.372C120.907 276.184 119.998 275.604 119.395 274.757C118.792 273.909 118.543 272.86 118.7 271.832C119.09 269.192 120.22 264.782 123.22 257.612C128.004 246.449 133.711 235.706 140.28 225.492C143.3 220.599 146.737 215.975 150.55 211.672C151.555 210.512 152.72 209.502 154.01 208.672C154.083 208.63 154.16 208.596 154.24 208.572C155.18 208.432 156.27 209.162 157.39 210.162C158.777 211.445 159.963 212.928 160.91 214.562C167.18 224.992 169.58 243.492 162.73 256.412C160.637 260.378 157.818 263.916 154.42 266.842C152.762 268.277 150.982 269.565 149.1 270.692C145.839 272.64 142.335 274.153 138.68 275.192L137.86 275.412C134.828 276.22 131.716 276.696 128.58 276.832Z" fill="black"/>
<path d="M226.35 169.31C229.222 169.31 231.55 166.982 231.55 164.11C231.55 161.238 229.222 158.91 226.35 158.91C223.478 158.91 221.15 161.238 221.15 164.11C221.15 166.982 223.478 169.31 226.35 169.31Z" stroke="black" stroke-width="2" mask="url(#path-1-inside-1)"/>
<path d="M281.28 169.31C284.152 169.31 286.48 166.982 286.48 164.11C286.48 161.238 284.152 158.91 281.28 158.91C278.408 158.91 276.08 161.238 276.08 164.11C276.08 166.982 278.408 169.31 281.28 169.31Z" stroke="black" stroke-width="2" mask="url(#path-1-inside-1)"/>
<path d="M269 182.27L255.83 176.8C255.384 176.64 254.914 176.559 254.44 176.56C253.966 176.559 253.496 176.64 253.05 176.8L239.88 182.27C239.462 182.396 239.091 182.641 238.81 182.976C238.53 183.31 238.354 183.719 238.303 184.153C238.252 184.586 238.328 185.025 238.523 185.415C238.718 185.805 239.023 186.13 239.4 186.35L252.81 195C253.292 195.338 253.871 195.51 254.46 195.49C255.049 195.51 255.628 195.338 256.11 195L269.5 186.33C269.871 186.107 270.168 185.781 270.358 185.392C270.547 185.003 270.62 184.567 270.567 184.138C270.514 183.708 270.338 183.304 270.06 182.972C269.782 182.641 269.414 182.397 269 182.27Z" stroke="black" stroke-width="2" mask="url(#path-1-inside-1)"/>
<path d="M227.37 169.198C226.273 169.419 225.135 169.282 224.123 168.806C223.111 168.33 222.279 167.541 221.75 166.556C221.221 165.571 221.023 164.441 221.185 163.335C221.347 162.228 221.862 161.203 222.651 160.412C223.441 159.62 224.465 159.103 225.571 158.938C226.677 158.773 227.807 158.968 228.793 159.495C229.78 160.022 230.571 160.852 231.049 161.863C231.528 162.874 231.668 164.012 231.45 165.108C231.251 166.118 230.757 167.047 230.031 167.777C229.305 168.506 228.379 169.005 227.37 169.208V169.198Z" stroke="black" stroke-width="2" mask="url(#path-1-inside-1)"/>
<path d="M269.5 186.338L256.11 194.998C255.627 195.337 255.048 195.509 254.46 195.488C253.871 195.509 253.292 195.337 252.81 194.998L239.42 186.328C239.043 186.109 238.738 185.784 238.543 185.394C238.348 185.003 238.271 184.564 238.322 184.131C238.373 183.698 238.55 183.289 238.83 182.954C239.11 182.62 239.482 182.375 239.9 182.248L253.07 176.778C253.516 176.619 253.986 176.538 254.46 176.538C254.933 176.538 255.404 176.619 255.85 176.778L269 182.268C269.419 182.392 269.792 182.636 270.075 182.969C270.357 183.302 270.536 183.711 270.589 184.144C270.642 184.578 270.567 185.018 270.374 185.409C270.18 185.801 269.876 186.127 269.5 186.348V186.338Z" stroke="black" stroke-width="2" mask="url(#path-1-inside-1)"/>
<path d="M282.3 169.198C281.203 169.417 280.066 169.277 279.055 168.8C278.044 168.322 277.214 167.532 276.686 166.546C276.159 165.561 275.963 164.431 276.127 163.325C276.29 162.219 276.806 161.196 277.596 160.405C278.387 159.615 279.411 159.099 280.517 158.935C281.622 158.772 282.752 158.968 283.738 159.495C284.723 160.022 285.513 160.853 285.991 161.864C286.469 162.874 286.608 164.012 286.39 165.108C286.19 166.12 285.695 167.049 284.967 167.779C284.239 168.509 283.31 169.006 282.3 169.208V169.198Z" stroke="black" stroke-width="2" mask="url(#path-1-inside-1)"/>
<path fill-rule="evenodd" clip-rule="evenodd" d="M225 450C349.264 450 450 349.264 450 225C450 100.736 349.264 0 225 0C100.736 0 0 100.736 0 225C0 349.264 100.736 450 225 450ZM344.72 251.91C343.632 241.243 340.298 230.927 334.94 221.64C333.496 219.169 331.844 216.827 330 214.64C329.762 214.36 329.441 214.163 329.084 214.076C328.727 213.99 328.352 214.019 328.012 214.158C327.672 214.298 327.386 214.542 327.193 214.855C327 215.168 326.912 215.533 326.94 215.9C328.12 230.911 328.099 245.992 326.88 261C326.267 267.976 325.228 274.909 323.77 281.76C323.703 282.058 323.717 282.369 323.811 282.661C323.905 282.952 324.075 283.213 324.303 283.417C324.531 283.621 324.81 283.76 325.11 283.82C325.41 283.88 325.72 283.859 326.01 283.76C329.882 282.482 333.459 280.442 336.53 277.76C343.13 271.82 345.89 263.12 344.72 251.91ZM253.403 82.6594C252.943 82.7694 252.466 82.7866 252 82.7099C243.839 81.448 235.537 81.3941 227.36 82.5499L225.6 82.8199C224.933 82.9325 224.247 82.8507 223.624 82.5843C223.002 82.3179 222.469 81.8781 222.09 81.3174C221.71 80.7567 221.5 80.0987 221.484 79.4218C221.469 78.745 221.648 78.0778 222 77.4999C224.512 73.6241 229.565 73.3556 233.854 73.1277L234 73.1199C233.589 72.9259 233.175 72.733 232.761 72.5403L232.759 72.5392C227.648 70.1592 222.583 67.8007 223.72 63.6199C225.05 58.74 232.98 60.8099 239.41 64.3199C239.007 62.2623 237.452 60.4616 235.98 58.7566C233.768 56.1943 231.743 53.848 234.09 51.1699C238.77 45.7899 259.23 58.9099 256.09 79.7099C256.023 80.1776 255.864 80.6271 255.621 81.0323C255.378 81.4375 255.057 81.7901 254.676 82.0695C254.295 82.3489 253.862 82.5494 253.403 82.6594ZM319.23 205.198C319.17 204.488 319.1 203.778 319.03 203.078C318.54 198.078 318.03 193.358 317.47 188.908C312.41 146.628 299.53 117.238 279.18 101.548C261.68 88.0485 241.82 87.4584 228.24 89.3384C204.24 92.6584 163.24 109.638 158.37 186.028C158.02 191.528 157.78 196.768 157.61 201.758C157.606 201.944 157.658 202.126 157.76 202.282C157.862 202.437 158.008 202.558 158.18 202.628C161.27 203.978 164.18 206.848 166.74 211.028C173.89 222.908 177.02 243.968 168.74 259.578C160.85 274.468 147.08 279.998 139.58 281.978H139.42C135.119 283.162 130.669 283.714 126.21 283.618H121.17C112.27 283.618 106.75 284.368 105.17 289.988C104.42 292.658 105.97 300.148 113.3 309.798C119.23 317.608 130.4 328.798 149.95 337.958C161.684 343.346 174.083 347.15 186.82 349.268C187.24 350.418 187.68 351.648 188.13 352.918C188.342 353.519 188.55 354.092 188.757 354.662C188.988 355.298 189.218 355.929 189.45 356.588C192.044 363.795 194.833 371.4 196.033 374.672L196.036 374.677L196.37 375.588C196.73 376.588 196.37 377.768 194.56 377.768H183.92C183.92 377.768 180.72 384.858 189.42 384.598C204.116 384.159 208.88 391.162 212.081 395.867C214.13 398.878 215.538 400.949 218.5 399.528C225.082 396.373 214.429 386.713 212.424 384.895C212.205 384.697 212.089 384.592 212.11 384.598C239.88 388.078 231.01 377.748 231.01 377.748C231.01 377.748 216.94 377.858 211.64 377.748C210.134 377.719 208.672 377.237 207.445 376.365C206.218 375.493 205.282 374.271 204.76 372.858L197.86 354.208L196.55 350.648C204.413 351.558 212.323 352.009 220.24 351.998C228.581 352.038 236.912 351.399 245.15 350.088L246.33 353.348C246.561 353.974 246.8 354.647 247.045 355.335C247.192 355.746 247.34 356.163 247.49 356.578C249.09 360.988 250.75 365.578 250.92 366.108C251.42 367.648 251.06 368.238 248.32 368.238H238C238 368.238 235 374.898 246.42 374.898C259.96 374.898 263.978 381.52 266.737 386.068C268.718 389.332 270.05 391.528 273.79 389.438C278.72 386.68 271.51 379.605 268.875 377.019C268.453 376.605 268.148 376.306 268.03 376.158C267.55 375.548 267.94 374.698 269.16 374.878C292.93 378.498 287.09 368.238 287.09 368.238C287.09 368.238 270.69 368.328 263.71 368.338C263.028 368.338 262.362 368.134 261.797 367.753C261.233 367.372 260.795 366.83 260.54 366.198C259.588 363.792 257.994 359.358 256.542 355.316L256.32 354.698C256.211 354.394 256.104 354.093 255.998 353.796C255.715 353 255.442 352.232 255.18 351.518C254.72 350.248 254.31 349.138 253.99 348.288C258.343 347.25 262.62 345.913 266.79 344.288C278.155 339.952 288.322 332.969 296.45 323.918C304.52 314.828 310.53 303.658 314.59 290.148C314.8 289.438 315.01 288.728 315.21 287.998C315.262 287.807 315.315 287.617 315.367 287.427C315.514 286.895 315.659 286.367 315.8 285.828C317.918 277.489 319.353 268.991 320.09 260.418C321.72 242.588 320.9 223.978 319.41 207.418C319.37 206.658 319.3 205.928 319.23 205.198ZM128.58 276.832H127.53C125.653 276.865 123.777 276.711 121.93 276.372C120.907 276.184 119.998 275.604 119.395 274.757C118.792 273.909 118.543 272.86 118.7 271.832C119.09 269.192 120.22 264.782 123.22 257.612C128.004 246.449 133.711 235.706 140.28 225.492C143.3 220.599 146.737 215.975 150.55 211.672C151.555 210.512 152.72 209.502 154.01 208.672C154.083 208.63 154.16 208.596 154.24 208.572C155.18 208.432 156.27 209.162 157.39 210.162C158.777 211.445 159.963 212.928 160.91 214.562C167.18 224.992 169.58 243.492 162.73 256.412C160.637 260.378 157.818 263.916 154.42 266.842C152.762 268.277 150.982 269.565 149.1 270.692C145.839 272.64 142.335 274.153 138.68 275.192L137.86 275.412C134.828 276.22 131.716 276.696 128.58 276.832Z" stroke="black" stroke-width="2" mask="url(#path-1-inside-1)"/>
</svg>
