<svg xmlns="http://www.w3.org/2000/svg" viewBox="0 0 500 200"><defs><style>.cls-1st{fill:#facd00;}.cls-2st{fill:#383838;}</style></defs><rect class="cls-1st" width="500" height="200"/><path class="cls-2st" d="M192.42,107.54h0v-.1a23.79,23.79,0,0,0-3.08-9.52,16.18,16.18,0,0,0-1.62-2.28,2.42,2.42,0,0,0-1.74-.86l-.06-.61c-.12-1.26-.25-2.5-.39-3.7,0-.3-.07-.6-.11-.89h0c0-.21,0-.42-.08-.64a1.5,1.5,0,0,0,0-.2l-.06-.43,0-.24-.06-.39,0-.24-.06-.38a2,2,0,0,0,0-.24l-.06-.39,0-.21c0-.16-.05-.31-.08-.46a.68.68,0,0,1,0-.14c0-.19-.07-.39-.11-.58l0-.16c0-.14,0-.28-.07-.42a1.55,1.55,0,0,1,0-.21c0-.12-.05-.24-.07-.35a1.89,1.89,0,0,1-.05-.23c0-.11-.05-.23-.07-.34s0-.15-.05-.22,0-.23-.07-.34,0-.14-.05-.21,0-.25-.08-.38,0-.1,0-.16l-.12-.53,0-.08c0-.15-.07-.29-.1-.44a1.21,1.21,0,0,1-.05-.18l-.09-.33a1.17,1.17,0,0,0-.05-.2c0-.11-.06-.21-.08-.31l-.06-.2c0-.1-.06-.2-.08-.3l-.06-.2-.09-.31a1.21,1.21,0,0,1-.05-.18c0-.13-.08-.26-.13-.39l0-.08-.15-.47a.88.88,0,0,0,0-.15l-.1-.31-.06-.18c0-.09-.06-.18-.1-.28l-.06-.18-.09-.27a1.34,1.34,0,0,1-.07-.18l-.1-.27-.06-.16-.12-.31a.61.61,0,0,0,0-.12c-.05-.14-.11-.28-.16-.41l-.05-.12-.12-.3-.07-.15c0-.09-.07-.17-.1-.25l-.08-.17a1.6,1.6,0,0,0-.1-.23c0-.06,0-.11-.07-.17l-.11-.23-.07-.16L181,73l-.06-.14-.17-.34,0-.08a3,3,0,0,0-.16-.31l-.07-.14a2.26,2.26,0,0,1-.11-.22,1.09,1.09,0,0,1-.08-.15,2.12,2.12,0,0,1-.11-.21l-.09-.14A1.28,1.28,0,0,0,180,71l-.08-.15-.12-.2a1,1,0,0,0-.08-.14l-.14-.23-.05-.09c-.07-.11-.13-.22-.2-.32l-.07-.11a2.39,2.39,0,0,0-.13-.21.83.83,0,0,0-.08-.12l-.12-.19-.09-.13a1.63,1.63,0,0,1-.11-.17l-.09-.13-.12-.17-.09-.12c0-.07-.09-.13-.13-.19l-.08-.1-.2-.28-.06-.08-.15-.19-.09-.11c0-.06-.09-.11-.13-.16l-.09-.12-.12-.14-.1-.12-.12-.14a.52.52,0,0,0-.1-.11l-.13-.15-.08-.1-.17-.18-.07-.08-.2-.22-.08-.09a1.85,1.85,0,0,1-.14-.14l-.1-.09-.12-.13-.1-.1-.13-.12a.94.94,0,0,0-.1-.1l-.13-.12-.09-.09-.15-.14-.08-.07-.22-.2-.08-.06-.15-.13a.39.39,0,0,0-.1-.08l-.13-.11-.1-.09-.13-.1-.1-.08-.13-.1-.11-.08-.14-.1-.09-.07-.2-.15-.08-.06-.18-.12-.09-.07-.14-.09-.1-.07-.14-.08-.1-.07-.13-.08-.11-.07-.13-.08-.1-.06-.16-.1-.08,0-.23-.13-.08,0-.15-.08-.1,0-.14-.07-.11-.06-.13-.06L171,62l-.14-.06-.1,0-.15-.07-.09,0-.23-.1-.07,0-.16-.07-.1,0-.14-.06-.1,0-.14,0-.1,0-.14-.05-.1,0-.14,0-.09,0-.19-.06-.06,0-.22-.07-.06,0h0a9.77,9.77,0,0,0-1.84-7.71c-1.51-2-3.65-3.28-5.44-3.28h0a3.06,3.06,0,0,0-2.35,1,3.36,3.36,0,0,0-.88,2.13,3,3,0,0,0-2.5,2.2,3.13,3.13,0,0,0,.45,2.6,4.64,4.64,0,0,0-1.44,3.39,21.15,21.15,0,0,0-3,1.34l-.68.37-.56.34-.41.27c-.41.26-.82.55-1.22.86l-.4.32q-.37.3-.75.63c-.28.25-.56.51-.83.78s-.77.78-1.15,1.21l-.53.64-.41.52-.22.29c-.21.29-.43.59-.64.9s-.45.7-.67,1.06l-.47.81-.34.63c-.2.4-.41.81-.6,1.24a27.31,27.31,0,0,0-1.05,2.56q-.3.83-.57,1.71c-.12.39-.23.8-.34,1.21s-.21.8-.31,1.21l-.09.38c-.1.44-.19.89-.28,1.35s-.15.79-.22,1.2q-.19,1.22-.36,2.52c-.11,1-.21,2-.28,3.13,0,.6-.07,1.2-.1,1.78s-.06,1.15-.08,1.71,0,1.11-.06,1.65c0,.12,0,.24,0,.36h0c-.52,0-2.1,0-6.32,6.92a52.86,52.86,0,0,0-5.34,11.18,6.54,6.54,0,0,0-.3,3.53h0l-.16,0h-.08l-.15,0-.07,0-.16,0-.06,0-.2.07h0l-.16.06-.07,0-.13.06-.06,0-.13.07-.06,0-.17.11h0l-.16.13-.05,0-.11.1,0,0-.1.1s0,0,0,.05l-.11.12,0,0-.12.18,0,0-.09.15,0,.06a.91.91,0,0,0-.07.14l0,.08a1,1,0,0,0-.07.15.19.19,0,0,1,0,.07,2.25,2.25,0,0,0-.08.24l-.06.29c0,.11,0,.22,0,.33a7,7,0,0,0,.76,2.94,14.84,14.84,0,0,0,1,1.82c.17.25.34.51.53.77a23.8,23.8,0,0,0,4.22,4.41c.48.4,1,.8,1.54,1.19a34.74,34.74,0,0,0,3,1.89,41.39,41.39,0,0,0,13.68,4.6c.91,2.53,2,5.65,2.35,6.48.11.28,0,.62-.51.62h-3.05s-.91,2,1.57,1.95c6.89-.2,6.14,5.31,8.31,4.27s-1.88-4.27-1.82-4.27c7.93,1,5.4-1.95,5.4-1.95s-4,0-5.54,0a2.13,2.13,0,0,1-2-1.4l-2-5.33a58.45,58.45,0,0,0,6.39.34,43.88,43.88,0,0,0,7.45-.59q.66-.1,1.29-.24-.63.13-1.29.24c.53,1.45,1.25,3.45,1.31,3.65.15.44,0,.61-.74.61h-2.94s-.85,1.9,2.4,1.9c6.65,0,5.27,5.58,7.82,4.15,1.64-.91-1.4-3.49-1.64-3.79s0-.42.32-.37c6.79,1,5.12-1.89,5.12-1.89l-6.68,0a1,1,0,0,1-.9-.61c-.36-.91-1.05-2.85-1.53-4.19a24.09,24.09,0,0,0,12.11-6.8l.37-.41c.2-.22.39-.44.58-.67l.29-.36c.29-.37.57-.75.84-1.13.14-.21.29-.43.42-.64a24.41,24.41,0,0,0,1.6-2.87c.12-.25.24-.5.35-.76l.21-.49c.15-.35.29-.7.43-1.06l.28-.78.24-.72.21-.68a1.84,1.84,0,0,0,.33,0,2.39,2.39,0,0,0,.79-.14,10.65,10.65,0,0,0,3.71-2.12,9,9,0,0,0,2.57-4A12.41,12.41,0,0,0,192.42,107.54ZM160,58.58a.07.07,0,0,0,0-.13c-1.5-.7-3-1.38-2.7-2.6a1.19,1.19,0,0,1,1.31-.83,7.05,7.05,0,0,1,2.82.84h0a.06.06,0,0,0,0-.11c-1.08-1.12-2.27-2.3-1.24-3.47a1.15,1.15,0,0,1,.89-.35c2.08,0,6.19,3.49,5.4,8.55h0l-.09,0-.14,0-.09,0-.14,0H166l-.15,0h-.08l-.22,0h0l-.19,0h-.08l-.14,0-.09,0h-.22l-.14,0h-.31l-.17,0h0l-.22,0h-2.64l-.43,0h0l-.39,0h0l-.37,0h0l-.36,0h0l-.36,0h0l-.37.05h0l-.5.07-.51.09-.14,0-1,.2-.17,0-.07,0C156.86,58.84,158.54,58.66,160,58.58ZM129,110.28a63.44,63.44,0,0,1,4.87-9.18c2.19-3.4,3.47-4.56,3.91-4.8h0l.08,0c.54,0,1.24.64,1.84,1.61l.07.1c1.79,3,2.48,8.27.52,12a10.15,10.15,0,0,1-1.34,1.95,11.38,11.38,0,0,1-4.66,3.13h0c-.41.15-.78.26-1.11.35a8.57,8.57,0,0,1-5.47,0C127.6,115.15,127.37,114.06,129,110.28Zm55.28-.25a42.69,42.69,0,0,1-1.36,7.67c-.19.68-.39,1.34-.62,2a23.43,23.43,0,0,1-4.53,7.93,20.94,20.94,0,0,1-8.1,5.57,35.74,35.74,0,0,1-13,2.13,56.76,56.76,0,0,1-7.15-.43c-.94-.12-1.87-.26-2.77-.43a40.61,40.61,0,0,1-9.72-3,27.37,27.37,0,0,1-10.11-7.74c-2.12-2.78-2.26-4.55-2.18-4.84.17-.63.54-1.11,3.48-1.11h1.59a12.19,12.19,0,0,0,5.2-.93,12.78,12.78,0,0,0,7-6c2.36-4.46,1.47-10.48-.58-13.87a6.74,6.74,0,0,0-1.68-2c.05-1.89.13-3.92.26-6.09.6-9.3,3.16-16.35,7.6-21a19.27,19.27,0,0,1,7.64-4.85,20.71,20.71,0,0,1,3.89-.92,22,22,0,0,1,3.1-.22,18.56,18.56,0,0,1,5.61.83,16.74,16.74,0,0,1,6.5,3.87c4.8,4.56,7.89,12.33,9.18,23.12.21,1.76.43,3.68.6,5.7A83.52,83.52,0,0,1,184.23,110Zm6.32-.64a9.26,9.26,0,0,1-.09,1.07,8.19,8.19,0,0,1-.19,1,7.33,7.33,0,0,1-.93,2.2,8.12,8.12,0,0,1-.56.75c-.1.12-.21.24-.32.35l-.35.33-.34.3a9.73,9.73,0,0,1-1.11.74c-.25.14-.51.26-.77.38s-.52.21-.78.3c.08-.31.15-.63.22-.94.17-.8.31-1.6.44-2.42,0-.18.06-.36.08-.55.07-.46.13-.94.19-1.41s.07-.66.1-1l.09-1c0-.5.07-1,.1-1.5,0-.34,0-.67,0-1l0-1c0-.17,0-.33,0-.5,0-.34,0-.67,0-1,0-.67,0-1.33,0-2l0-1c0-.33,0-.67,0-1s0-.66,0-1c-.05-.91-.11-1.81-.17-2.7h0l0,0a.46.46,0,0,1,.07.07c.25.29.49.6.73.94s.35.51.53.79l.17.28a20.65,20.65,0,0,1,1,2c.16.35.3.7.44,1.06.21.54.39,1.09.56,1.66s.31,1.13.43,1.7a23.3,23.3,0,0,1,.37,2.32h0c0,.2,0,.4.05.6C190.55,108.63,190.56,109,190.55,109.39Z"/><path class="cls-2st" d="M158.41,81.12a1.49,1.49,0,1,0,1.49,1.48A1.48,1.48,0,0,0,158.41,81.12Z"/><path class="cls-2st" d="M174.11,81.12a1.49,1.49,0,1,0,1.49,1.48A1.49,1.49,0,0,0,174.11,81.12Z"/><path class="cls-2st" d="M170.61,87.79l-3.77-1.56a1.28,1.28,0,0,0-.39-.07h0a1.29,1.29,0,0,0-.4.07l-3.76,1.56a.64.64,0,0,0-.14,1.17L166,91.44a.82.82,0,0,0,.48.14h0a.79.79,0,0,0,.47-.14L170.74,89A.64.64,0,0,0,170.61,87.79Z"/><path class="cls-2st" d="M228,110.33v22.55a28.14,28.14,0,0,1-3.4.6,36.07,36.07,0,0,1-4.68.3c-3.53,0-6-.6-7.34-1.8s-2-3.36-2-6.48V72.32l3.49-.55a30.84,30.84,0,0,1,4.59-.35c3.32,0,5.72.57,7.18,1.7s2.2,3.33,2.2,6.59V95.87l20.75-24q6.78,0,9.72,2.55a7.72,7.72,0,0,1,2.95,6,9.84,9.84,0,0,1-1.3,4.89,25.31,25.31,0,0,1-4.19,5.19l-12.47,12.47q6.48,7.19,11.77,12.77t8.48,9.08a8.93,8.93,0,0,1-.8,3.89,8.82,8.82,0,0,1-2.14,2.89,9.1,9.1,0,0,1-3,1.8,10.75,10.75,0,0,1-3.6.6,10.5,10.5,0,0,1-6.68-2.05,35.34,35.34,0,0,1-5-4.84Z"/><path class="cls-2st" d="M318.76,108.74a29.74,29.74,0,0,1-1.84,10.77,22.6,22.6,0,0,1-5.29,8.13,23.58,23.58,0,0,1-8.23,5.14,30.47,30.47,0,0,1-10.78,1.8,31.35,31.35,0,0,1-10.77-1.75,22.82,22.82,0,0,1-8.23-5.09,22.34,22.34,0,0,1-5.29-8.13,30.07,30.07,0,0,1-1.84-10.87,28.85,28.85,0,0,1,1.89-10.68,22.84,22.84,0,0,1,5.34-8.13A23.49,23.49,0,0,1,282,84.79,30.35,30.35,0,0,1,292.62,83a29.48,29.48,0,0,1,10.68,1.84A24.14,24.14,0,0,1,311.53,90a23.11,23.11,0,0,1,5.34,8.13A28.58,28.58,0,0,1,318.76,108.74ZM292.62,96.27a7.48,7.48,0,0,0-6.48,3.24q-2.29,3.24-2.3,9.23,0,6.29,2.3,9.42a8.21,8.21,0,0,0,13,0c1.53-2.12,2.29-5.25,2.29-9.37s-.76-7.07-2.29-9.23A7.48,7.48,0,0,0,292.62,96.27Z"/><path class="cls-2st" d="M377.22,108.74a29.74,29.74,0,0,1-1.84,10.77,22.34,22.34,0,0,1-5.29,8.13,23.49,23.49,0,0,1-8.23,5.14,30.41,30.41,0,0,1-10.77,1.8,31.37,31.37,0,0,1-10.78-1.75,22.9,22.9,0,0,1-8.23-5.09,22.47,22.47,0,0,1-5.29-8.13A30.07,30.07,0,0,1,325,108.74a28.85,28.85,0,0,1,1.89-10.68,23.11,23.11,0,0,1,5.34-8.13,23.58,23.58,0,0,1,8.23-5.14A30.36,30.36,0,0,1,351.09,83a29.46,29.46,0,0,1,10.67,1.84A24,24,0,0,1,370,90a23,23,0,0,1,5.34,8.13A28.58,28.58,0,0,1,377.22,108.74ZM351.09,96.27a7.48,7.48,0,0,0-6.49,3.24q-2.3,3.24-2.29,9.23,0,6.29,2.29,9.42a8.21,8.21,0,0,0,13,0c1.53-2.12,2.3-5.25,2.3-9.37s-.77-7.07-2.3-9.23A7.48,7.48,0,0,0,351.09,96.27Z"/></svg>
