<svg  viewBox="0 0 414 65" fill="none" xmlns="http://www.w3.org/2000/svg">
            <g mask="url(#mask0)">
                <g filter="url(#filter0_d)">
                    <rect width="414" height="65"></rect>
                </g>
                <g opacity="0.25">
                    <path d="M84 56.4503C84 61.6049 79.6812 65.7825 74.3534 65.7825C69.0256 65.7825 64.7068 61.6049 64.7068 56.4503C64.7068 51.2962 69.0256 47.1187 74.3534 47.1187C79.6812 47.1187 84 51.2962 84 56.4503Z" fill="white"></path>
                    <path fill-rule="evenodd" clip-rule="evenodd" d="M31.7646 0.782211L0 0.782211L0 65.7574H18.6172V46.0794L26.5826 46.0794H26.7745L40.3062 65.7574H61.8022L45.776 43.1088C54.1252 39.6742 59.5956 33.0845 59.5956 23.1524V22.9663C59.5956 16.5616 57.5797 11.5495 53.6455 7.83646C49.1351 3.38108 42.0332 0.782211 31.7646 0.782211ZM40.8819 24.2664C40.8819 29.0007 37.235 31.9708 30.9011 31.9708H18.6172V16.3764H30.8052C37.0431 16.3764 40.8819 18.9758 40.8819 24.0808V24.2664Z" fill="white"></path>
                </g>
            </g>
            <path d="M270.026 39.166C270.026 38.0039 269.616 37.1152 268.796 36.5C267.976 35.8711 266.499 35.2148 264.366 34.5312C262.233 33.834 260.545 33.1504 259.301 32.4805C255.91 30.6484 254.215 28.1807 254.215 25.0771C254.215 23.4639 254.666 22.0283 255.568 20.7705C256.484 19.499 257.79 18.5078 259.485 17.7969C261.194 17.0859 263.108 16.7305 265.228 16.7305C267.36 16.7305 269.261 17.1201 270.929 17.8994C272.597 18.665 273.889 19.752 274.805 21.1602C275.734 22.5684 276.199 24.168 276.199 25.959H270.047C270.047 24.5918 269.616 23.5322 268.755 22.7803C267.894 22.0146 266.684 21.6318 265.125 21.6318C263.621 21.6318 262.452 21.9531 261.618 22.5957C260.784 23.2246 260.367 24.0586 260.367 25.0977C260.367 26.0684 260.853 26.8818 261.823 27.5381C262.808 28.1943 264.25 28.8096 266.15 29.3838C269.65 30.4365 272.2 31.7422 273.8 33.3008C275.399 34.8594 276.199 36.8008 276.199 39.125C276.199 41.709 275.222 43.7393 273.267 45.2158C271.312 46.6787 268.68 47.4102 265.371 47.4102C263.074 47.4102 260.982 46.9932 259.096 46.1592C257.209 45.3115 255.767 44.1562 254.769 42.6934C253.784 41.2305 253.292 39.5352 253.292 37.6074H259.465C259.465 40.9023 261.434 42.5498 265.371 42.5498C266.834 42.5498 267.976 42.2559 268.796 41.668C269.616 41.0664 270.026 40.2324 270.026 39.166ZM304.685 47H298.532V34.2031H286.535V47H280.383V17.1406H286.535V29.2402H298.532V17.1406H304.685V47ZM334.605 32.7471C334.605 35.6865 334.086 38.2637 333.047 40.4785C332.008 42.6934 330.518 44.4023 328.576 45.6055C326.648 46.8086 324.434 47.4102 321.932 47.4102C319.457 47.4102 317.249 46.8154 315.308 45.626C313.366 44.4365 311.862 42.7412 310.796 40.54C309.729 38.3252 309.189 35.7822 309.176 32.9111V31.4346C309.176 28.4951 309.702 25.9111 310.755 23.6826C311.821 21.4404 313.318 19.7246 315.246 18.5352C317.188 17.332 319.402 16.7305 321.891 16.7305C324.379 16.7305 326.587 17.332 328.515 18.5352C330.456 19.7246 331.953 21.4404 333.006 23.6826C334.072 25.9111 334.605 28.4883 334.605 31.4141V32.7471ZM328.371 31.3936C328.371 28.2627 327.811 25.8838 326.689 24.2568C325.568 22.6299 323.969 21.8164 321.891 21.8164C319.826 21.8164 318.233 22.623 317.112 24.2363C315.991 25.8359 315.424 28.1875 315.41 31.291V32.7471C315.41 35.7959 315.971 38.1611 317.092 39.8428C318.213 41.5244 319.826 42.3652 321.932 42.3652C323.996 42.3652 325.582 41.5586 326.689 39.9453C327.797 38.3184 328.357 35.9531 328.371 32.8496V31.3936ZM362.332 38.3867L366.352 17.1406H372.483L365.859 47H359.666L354.806 27.0254L349.945 47H343.752L337.128 17.1406H343.26L347.3 38.3457L352.222 17.1406H357.431L362.332 38.3867ZM391.31 39.166C391.31 38.0039 390.899 37.1152 390.079 36.5C389.259 35.8711 387.782 35.2148 385.649 34.5312C383.517 33.834 381.828 33.1504 380.584 32.4805C377.193 30.6484 375.498 28.1807 375.498 25.0771C375.498 23.4639 375.949 22.0283 376.852 20.7705C377.768 19.499 379.073 18.5078 380.769 17.7969C382.478 17.0859 384.392 16.7305 386.511 16.7305C388.644 16.7305 390.544 17.1201 392.212 17.8994C393.88 18.665 395.172 19.752 396.088 21.1602C397.018 22.5684 397.482 24.168 397.482 25.959H391.33C391.33 24.5918 390.899 23.5322 390.038 22.7803C389.177 22.0146 387.967 21.6318 386.408 21.6318C384.904 21.6318 383.735 21.9531 382.901 22.5957C382.067 23.2246 381.65 24.0586 381.65 25.0977C381.65 26.0684 382.136 26.8818 383.106 27.5381C384.091 28.1943 385.533 28.8096 387.434 29.3838C390.934 30.4365 393.483 31.7422 395.083 33.3008C396.683 34.8594 397.482 36.8008 397.482 39.125C397.482 41.709 396.505 43.7393 394.55 45.2158C392.595 46.6787 389.963 47.4102 386.654 47.4102C384.357 47.4102 382.266 46.9932 380.379 46.1592C378.492 45.3115 377.05 44.1562 376.052 42.6934C375.067 41.2305 374.575 39.5352 374.575 37.6074H380.748C380.748 40.9023 382.717 42.5498 386.654 42.5498C388.117 42.5498 389.259 42.2559 390.079 41.668C390.899 41.0664 391.31 40.2324 391.31 39.166Z" fill="white"></path>
            <defs>
                <filter id="filter0_d" x="-4" y="0" width="422" height="73" filterUnits="userSpaceOnUse" color-interpolation-filters="sRGB">
                    <feColorMatrix in="SourceAlpha" type="matrix" values="0 0 0 0 0 0 0 0 0 0 0 0 0 0 0 0 0 0 127 0">
                    </feColorMatrix>
                    <feOffset dy="4"></feOffset>
                    <feGaussianBlur stdDeviation="2"></feGaussianBlur>
                    <feColorMatrix type="matrix" values="0 0 0 0 0 0 0 0 0 0 0 0 0 0 0 0 0 0 0.25 0"></feColorMatrix>
                </filter>
            </defs>
        </svg>